<?xml version="1.0" encoding="utf-8"?>
<!-- Generator: Adobe Illustrator 24.0.0, SVG Export Plug-In . SVG Version: 6.00 Build 0)  -->
<svg version="1.1" id="Layer_1" xmlns="http://www.w3.org/2000/svg" xmlns:xlink="http://www.w3.org/1999/xlink" x="0px" y="0px"
	 viewBox="0 0 512 512" style="enable-background:new 0 0 512 512;" xml:space="preserve">
<style type="text/css">
	.st0{fill:#FFC32D;}
	.st1{fill:#70AB11;}
	.st2{fill:#1F91C3;}
	.st3{fill:#2FA0CC;}
	.st4{fill:#FFFFFF;}
</style>
<path class="st0" d="M446.8,426.7C487.3,381.4,512,321.6,512,256s-24.7-125.4-65.2-170.7L256,66.8L65.2,85.3
	C24.7,130.6,0,190.4,0,256s24.7,125.4,65.2,170.7L256,445.2L446.8,426.7z"/>
<path class="st1" d="M65.2,85.3h381.6C399.9,33,331.8,0,256,0S112.1,33,65.2,85.3z"/>
<path class="st2" d="M0,256l256,22.3L512,256c0-29.9-5.2-58.6-14.6-85.3H14.6C5.2,197.4,0,226.1,0,256z"/>
<path class="st1" d="M14.6,341.3h482.8c9.4-26.7,14.6-55.4,14.6-85.3H0C0,285.9,5.2,314.6,14.6,341.3z"/>
<path class="st3" d="M446.8,426.7H65.2C112.1,479,180.2,512,256,512S399.9,479,446.8,426.7z"/>
<g>
	<path class="st4" d="M243.6,284.5c0,4.4,0.1,8.3,0,12.3c-0.1,4.5-2,6.9-6.4,7.7c-5.2,1-10.5,0.4-15.8,0.5c-2.5,0-2.3-2-2.3-3.7
		c0.1-10,0.2-20.1,0.2-30.1c-0.1-29.2,0.4-58.4-0.4-87.5c-0.1-2.6,0.8-4.6,2.7-6.2c1.8-1.6,3.9-2.7,6.2-3.4
		c12.3-3.3,15.5-1.2,15.7,11.4c0.3,20.3,0.1,40.7,0.2,61c0,1.2-0.9,3.1,0.7,3.5c1.2,0.3,2.2-1.2,3.1-2.2c4.4-5.2,6.9-11.1,6.8-18.1
		c-0.1-5.6,1.4-7,7-7.1c14.4-0.4,18.5,4.6,15.7,18.8c-1.9,9.8-7.3,17.1-15.3,22.6c-1.2,0.8-3,1.2-1,3.3c8.3,8.7,15.6,18.2,23.3,27.4
		c0.6,0.7,0.9,2.1,2.7,1.6c-2.1-4.7-3.8-9.4-4.3-14.5c-1.2-13,0.7-25.8,1.1-38.8c0.2-5.7,0.1-11.4-1.7-16.8
		c-0.7-2.2-0.2-3.7,1.9-4.9c3.6-2.1,7-4.7,11.5-5c6.3-0.3,10.1,2.5,11.8,8.7c2.7,10,1.7,20.2,1.2,30.3c-0.3,6.6-1,13.2-0.9,19.8
		c0.1,7.3,4.2,10.9,10.6,10.3c4.5-0.4,6.1-2,6.1-6.5c0.1-14.9,0-29.8,0-44.8c0-1.6,0-3.2,0.1-4.8c0.4-5.9,3.1-9.1,8.9-10.5
		c4.6-1.2,9.2-0.7,13.8-0.8c2.5-0.1,2.2,1.6,2.2,3.2c-0.1,9.5-0.2,19-0.3,28.5c-0.1,10.8,0,21.7,0,32.5c0,3.7,0.3,7.4,1.5,10.9
		c0.8,2.3,0.2,3.8-1.6,5.1c-5.2,3.7-10.3,7.4-16.9,3.2c-1.3-0.8-2.2,0.2-3.2,0.7c-7.9,4-16.2,5.5-24.9,3.7
		c-5.6-1.1-10.6-3.1-14.5-7.5c-0.5-0.6-0.9-1.4-1.9-1.1c-1.1,0.3-0.6,1.3-0.7,2c-0.1,3.1-1.9,4.9-4.6,5.7c-8.6,2.7-16.8,3-23.8-5.2
		c-3.4-4-6.8-8.1-10.3-12C246.7,286.6,245.8,285.3,243.6,284.5z"/>
	<path class="st4" d="M214,253.9c0,8.8,0,17.7,0,26.5c0,4.5,0.1,9,1.6,13.3c0.4,1.1,0.5,2.2-0.4,3.3c-3.8,5.2-12,7.6-17.7,4.7
		c-1.9-0.9-2.9-0.1-4.3,0.6c-8.7,4.4-17.8,5.4-27.3,2.9c-9.5-2.5-15-8.7-17.3-18.1c-2.6-11-0.9-22.1-0.4-33.1
		c0.4-9.6,1.8-19.2-1.3-28.7c-0.3-1-0.5-2.2,0.5-2.9c4.1-2.8,8.1-6,13.4-6.2c5.9-0.2,9.8,2.6,11.3,8.3c2.8,10,1.8,20.1,1.3,30.3
		c-0.4,7.2-1.4,14.5-0.8,21.7c0.5,6.3,4.7,9.5,10.7,8.8c4.5-0.6,5.7-1.8,5.7-6.4c0-15,0-30.1,0-45.1c0-1.1,0-2.1,0-3.2
		c0.2-7.4,2.8-10.4,10-12c0.3-0.1,0.5-0.2,0.8-0.2c4.2-0.8,9-1.7,12.5-0.1c4.5,2.1,1.4,7.5,1.6,11.3c0.4,8,0.1,16.1,0.1,24.1
		C214.1,253.9,214.1,253.9,214,253.9z"/>
	<path class="st4" d="M112.7,238.2c-7,0-13.3,0-19.7,0c-12-0.1-12.7-5.6-8.6-16.1c1.1-2.9,3.8-4.2,7-4.2c16.2,0.3,32.5,0.6,48.7,0.8
		c2.2,0,2.8,0.8,3,3c0.8,7.6-2.3,13.8-5.8,20.1c-7.6,13.6-14.9,27.3-22.9,40.6c-0.3,0.5-0.5,1.1-0.9,2.1c8.7,0.2,17,0.4,25.3-1.2
		c7.2-1.3,7.7-0.8,6.9,6.5c-0.1,1.2-0.3,2.4-0.4,3.5c-1.1,8.2-4.3,11.1-12.5,11.1c-13.5,0.1-26.9,0.2-40.4,0
		c-11.2-0.2-14.8-6.8-9.2-16.6c8.6-14.7,17.4-29.2,26.1-43.8C110.5,242.4,111.4,240.7,112.7,238.2z"/>
	<path class="st4" d="M308.6,205.6c-11.3-3.6-19.5-14.5-20.3-26.5c-0.3-5.1-0.2-10.3,0.7-15.4c0.6-3.1,2.1-5.7,5.2-6.2
		c11.4-1.9,22.9-1.9,34.4,0.2c3.5,0.7,6.2,3.1,8.8,5.4c-1.4,1-2.9,3.6-4.2-0.1c-0.6-1.8-1.7-0.9-2.8-0.4c-4.8,2.4-9.3,5.4-13.4,8.9
		c-6.3,5.3-10.6,11.7-12.3,19.8c-0.5,2.2-0.4,4.8-2.6,6.4c-1.4,1-0.7,1.2,0.5,2.3C304.4,201.9,307.5,202.7,308.6,205.6z"/>
	<path class="st4" d="M378.4,265.5c-3.2-1.4-6.6-2.4-8.7-5.5c-0.3-0.2-0.6-0.5-0.8-0.7c0,0,0,0,0,0c-0.2-0.3-0.5-0.5-0.7-0.8
		c0,0-0.1-0.1-0.1-0.1c-0.3-0.3-0.5-0.5-0.8-0.8c0,0,0,0,0,0c-0.3-0.3-0.5-0.5-0.8-0.8c0,0,0,0,0,0c-0.7-2.8-0.2-4.7,3.1-5.2
		c1.4-0.2,2.6-1.2,3.9-1.9c5.1-2.5,10.4-4.3,13.3-10.2c3.5-6.9,9.7-12.9,4.3-21.7c2.1,0,3.9,0,5.8,0c8.1,1.3,14,5.7,18.1,12.6
		c-2.4-1.4-4.4-1.5-4.7,1.9c-0.2,2.2-1.4,3.8-2.4,5.7c-4.6,8.7-9,17.4-17,24c-3.4,2.8-5.9,2.7-9.3,2.2
		C380.2,264.1,378.8,263.4,378.4,265.5z"/>
	<path class="st4" d="M378.4,265.5c0.4-2,1.8-1.3,3.1-1.1c3.4,0.5,6,0.6,9.3-2.2c8-6.6,12.4-15.2,17-24c1-1.9,2.2-3.4,2.4-5.7
		c0.3-3.5,2.3-3.4,4.7-1.9c0,0-0.1,0.1-0.1,0.1c0.2,0.3,0.5,0.5,0.7,0.8c0,0,0.1,0.1,0.1,0.1c0,0.6,0.1,1.2,0.8,1.4
		c5.2,9.8,5,19.8,1.7,30.1c-0.6,1.7-1.6,2.1-3.3,2.7c-9.4,3.5-19,1.6-28.5,1.9C383.6,267.7,381,266.5,378.4,265.5z"/>
	<path class="st4" d="M417.3,188.2c0,0,0,0.3,0,0.3c-1.8,0.6-2.5,2.1-3.1,3.6c-0.6,1.6-1.5,2.7-3.2,2.9c-0.9-1.8-0.4-3.5,1.1-4.7
		c1-0.8,1.6-1.4,0.7-2.5c-1-1.1-1.4-0.3-1.9,0.7c-0.6,1.1-1.7,1.1-2.1,0c-2.1-6-8-10-8.8-16.7c-0.2-1.8-1.5-2.5-2.9-2.8
		c-1.9-0.5-3.2-1.5-4.4-3.1c-1.9-2.5-4.3-4.1-7.4-4.9c-1.4-0.4-3.3-0.4-3.6-2.5c1.8-0.3,3.6-0.8,5.4-0.8c8.4-0.1,16.8,0,25.1,0
		c3.5,0.1,6.1,1.1,7,5.2c1.4,6.4,1.5,12.8,0.4,19.3c-2.5,0.8-1.2,2.8-1.5,4.3c0,0,0,0.3,0,0.3C417.8,187.4,417.5,187.8,417.3,188.2z
		"/>
	<path class="st4" d="M398.2,206c-0.5,0-1,0.1-1.4,0.1c-4.9-0.4-9.9-0.8-15-1.2c0.9-2.5,5.2-1,3.8-5.1c-2.1-6.3-7.1-10.4-10.7-15.6
		c-0.7-1-2.3-1.2-3.6-1.2c-0.9,0-2.3,0.2-2.7-0.3c-3.8-4.9-4.1-1.1-5,1.9c-0.4,1.3-1.2,2.4-1.9,3.8c-1.7-5.7-0.1-12,4-17.2
		c1.3,0.1,2.5-0.1,3.1-1.2c2.3-4.3,7.1-0.9,10.1-3.3c0.6-0.5,1.2,1.1,1.8,1.7c3.1,3,4,7.6,7.3,10.5c5.4,4.7,8.3,10.6,8.6,17.8
		c0,1.2-0.3,2.6,1.5,3.2c2.8,0.9,1.7,2.2-0.1,3c-1.7,0.8-1.5,1.3,0.1,1.7C398.2,205.1,398.2,205.5,398.2,206z"/>
	<path class="st4" d="M341.8,206.2l-0.3,0c0,0-0.3,0-0.3,0c-6.9,0-13.8,0-20.7,0c-0.3-0.6-0.9-0.7-1.6-0.8c-0.9-3.2,3.7-1.6,3.3-3.4
		c-0.4-1.8-2.1-3.3-1.3-5.4c0-0.1,0.1-0.2,0.2-0.4c2.4-6,4.8-11.6,11.4-14.8c4.8-2.3,9.4-1.7,14.2-2.1c0.3,0.3,0.5,0.5,0.8,0.8
		c0,0.7,0.2,1.3,0.8,1.6c0,0.8-0.1,1.6-0.1,2.4c-0.8,0.5-0.8,1,0,1.5c0,7.2,1.6,14.9-4.7,20.7c0,0-0.1,0-0.1,0
		C343,206.2,342.4,206.2,341.8,206.2z"/>
	<path class="st4" d="M360.2,244.2c-1.7-6.9-1.4-13.8-0.2-20.6c0.8-4.5,3.5-6.1,9-6.4c3.1-0.2,6.3,0.1,9.4,0.1
		c1.2,1.2,2.7,0.6,4.1,0.7c1.5,0.1,2,0.7,2.2,2.1c0.9,7.6-1.3,13.9-7.1,19c-2.1,1.8-3.6,4.3-6.8,4.3c-1.7,0-3.3,0-4.5,1.7
		c-1.1,1.5-2.8,0.2-4,0c-1-0.1-0.1-1.5,0.4-2.2c0.4-0.6,0.7-1.3-0.2-1.6c-0.7-0.3-1.3,0.1-1.4,0.9
		C360.9,242.9,360.9,243.7,360.2,244.2z"/>
	<path class="st4" d="M365.7,171.3c-4.1,5.2-5.7,11.6-4,17.2c0.7-1.4,1.5-2.5,1.9-3.8c0.9-2.9,1.2-6.7,5-1.9
		c0.4,0.5,1.7,0.3,2.7,0.3c1.4,0,2.9,0.2,3.6,1.2c3.6,5.1,8.6,9.3,10.7,15.6c1.4,4.1-3,2.6-3.8,5.1c5.1,0.4,10,0.8,15,1.2
		c-1,1.1-2.4,0.9-3.7,0.9c-8.2,0-16.3,0-24.5-0.1c-5.4-0.1-9.2-3.1-9.2-8.5c0-8-1.6-16.1,2.1-24c1.1-2.3,3-3.7,4.2-5.7
		c0,0,0.2,0.1,0.2,0.1C365.8,169.7,365.8,170.5,365.7,171.3z"/>
	<path class="st4" d="M347.5,180c-0.3-0.3-0.5-0.5-0.8-0.8c-0.5-1.6-0.7-3.5-1.6-4.8c-1.4-1.9-3.6-5.9-4.7-4.8
		c-3.8,3.4-4.8,0.3-6.7-2.6c-0.2,3.1-1.2,4.9-3.6,5.5c-8.9,2.3-12.2,10.1-15.9,17.2c-2.4,4.8-3,10.2-2.3,15.6
		c-0.5,0.3-1,0.5-1.5,0.8c-0.6-0.2-1.2-0.4-1.7-0.5c-1.1-2.9-4.1-3.7-6.1-5.6c-1.1-1.1-1.9-1.3-0.5-2.3c2.3-1.6,2.2-4.2,2.6-6.4
		c1.7-8.1,6-14.5,12.3-19.8c4.2-3.5,8.6-6.4,13.4-8.9c1.1-0.5,2.2-1.5,2.8,0.4c1.3,3.8,2.7,1.1,4.2,0.1c6.6,3.8,9.3,10.2,11.7,16.9
		C348.5,180,348,180,347.5,180z"/>
	<path class="st4" d="M360.2,244.2c0.8-0.5,0.7-1.3,0.9-2.1c0.2-0.8,0.8-1.2,1.4-0.9c0.8,0.3,0.6,1,0.2,1.6
		c-0.5,0.7-1.4,2.1-0.4,2.2c1.3,0.2,3,1.5,4,0c1.2-1.7,2.8-1.7,4.5-1.7c3.2,0,4.8-2.5,6.8-4.3c5.8-5,8-11.4,7.1-19
		c-0.2-1.5-0.7-2.1-2.2-2.1c-1.4-0.1-2.9,0.5-4.1-0.7c6.1-0.1,12.3-0.9,18.4,0.7c-1.8,0-3.7,0-5.8,0c5.5,8.8-0.8,14.7-4.3,21.7
		c-3,5.9-8.2,7.6-13.3,10.2c-1.3,0.6-2.5,1.6-3.9,1.9c-3.3,0.5-3.8,2.4-3.1,5.2C363.1,253.3,360.7,249.2,360.2,244.2z"/>
	<path class="st4" d="M412.1,157.9c-8.4,0-16.8-0.1-25.1,0c-1.8,0-3.6,0.5-5.4,0.8c-2.6,1.2-5,2.7-7.4,4.2c-3,1.8-5.1,4.9-8.4,6.1
		c0,0-0.2-0.1-0.2-0.1c0.6-3.3,3.5-4.6,5.8-6.4c5-4,10.7-5.8,17-5.8c6.3,0,12.6,0,18.9,0C409,156.6,410.8,156.4,412.1,157.9z"/>
	<path class="st4" d="M310.3,206.1c0.5-0.3,1-0.5,1.5-0.8c1,0,2.1,0.1,3.1,0.1c1.7,1.5,3.7,0.5,5.5,0.7c6.9,0,13.8,0,20.7,0
		c-0.6,1.3-1.8,1.4-3,1.4c-8.6-0.1-17.2,0.6-25.7-0.7C311.7,206.7,311,206.4,310.3,206.1z"/>
	<path class="st4" d="M348.2,184c0-0.8,0.1-1.6,0.1-2.4c0.3-0.3,0.5-0.6,0.8-0.9c1.2,6.4,1,12.9,0.1,19.2c-0.4,2.9-1.9,5.8-5.6,6.3
		c6.3-5.8,4.7-13.4,4.7-20.7C348.3,185,348.3,184.5,348.2,184z"/>
	<path class="st4" d="M410.9,195.1c1.7-0.2,2.6-1.3,3.2-2.9c0.6-1.5,1.3-3.1,3.1-3.6c-1.4,4.1-3.1,8.1-7,10.6l-0.3-0.2
		C410.3,197.6,410.6,196.4,410.9,195.1z"/>
	<path class="st4" d="M398.2,206c0-0.5,0-1,0-1.5c4.1-0.6,7-4,11-4.9l0.2,0.3C406.3,203.2,402.3,204.7,398.2,206z"/>
	<path class="st4" d="M418.1,186.7c0.3-1.5-1-3.6,1.5-4.3C419.9,184.1,419.4,185.5,418.1,186.7z"/>
	<path class="st4" d="M349.1,180.7c-0.3,0.3-0.5,0.6-0.8,0.9c-0.7-0.3-0.8-0.9-0.8-1.6c0.5,0,1,0,1.5,0
		C349.1,180.2,349.2,180.5,349.1,180.7z"/>
	<path class="st4" d="M341.8,206.2c0.6,0,1.1,0,1.7,0C343,206.9,342.4,206.7,341.8,206.2z"/>
	<path class="st4" d="M416.5,233c-0.7-0.3-0.8-0.8-0.8-1.4C416.3,231.8,416.4,232.4,416.5,233z"/>
	<path class="st4" d="M410.2,199.1c-0.3,0.3-0.5,0.5-0.8,0.8c0,0-0.2-0.3-0.2-0.3c0.2-0.3,0.5-0.5,0.7-0.8
		C410,198.9,410.2,199.1,410.2,199.1z"/>
	<path class="st4" d="M417.3,188.2c0.3-0.4,0.5-0.9,0.8-1.3C418.3,187.7,417.8,188,417.3,188.2z"/>
	<path class="st4" d="M415.6,231.5c-0.2-0.3-0.5-0.5-0.7-0.8C415.1,230.9,415.4,231.2,415.6,231.5z"/>
	<path class="st4" d="M366.4,256.9c0.3,0.3,0.5,0.5,0.8,0.8C366.7,257.7,366.4,257.4,366.4,256.9z"/>
	<path class="st4" d="M367.2,257.7c0.3,0.3,0.5,0.5,0.8,0.8C367.8,258.2,367.5,257.9,367.2,257.7z"/>
	<path class="st4" d="M368.1,258.5c0.2,0.3,0.5,0.5,0.7,0.8C368.6,259,368.4,258.7,368.1,258.5z"/>
	<path class="st4" d="M368.8,259.3c0.3,0.2,0.6,0.5,0.8,0.7C369.1,260.1,368.9,259.8,368.8,259.3z"/>
	<path class="st4" d="M410,198.9c-0.2,0.3-0.5,0.5-0.7,0.8c-4,0.9-6.9,4.3-11,4.9c-1.6-0.5-1.8-0.9-0.1-1.7c1.8-0.9,2.9-2.1,0.1-3
		c-1.9-0.6-1.5-1.9-1.5-3.2c-0.3-7.2-3.1-13-8.6-17.8c-3.2-2.8-4.1-7.4-7.3-10.5c-0.6-0.6-1.2-2.2-1.8-1.7c-3,2.4-7.8-1-10.1,3.3
		c-0.6,1.1-1.9,1.4-3.1,1.2c0-0.8,0-1.5,0.1-2.3c3.3-1.3,5.4-4.3,8.4-6.1c2.4-1.5,4.8-3,7.4-4.2c0.3,2.1,2.1,2.1,3.6,2.5
		c3.1,0.8,5.5,2.5,7.4,4.9c1.2,1.5,2.5,2.6,4.4,3.1c1.4,0.4,2.6,1,2.9,2.8c0.8,6.6,6.7,10.7,8.8,16.7c0.4,1,1.5,1.1,2.1,0
		c0.5-0.9,0.9-1.8,1.9-0.7c0.9,1,0.4,1.7-0.7,2.5c-1.4,1.1-2,2.8-1.1,4.7C410.6,196.4,410.3,197.6,410,198.9z"/>
	<path class="st4" d="M315,205.4c-1,0-2.1-0.1-3.1-0.1c-0.7-5.4-0.1-10.8,2.3-15.6c3.6-7.1,6.9-14.9,15.9-17.2
		c2.5-0.6,3.4-2.4,3.6-5.5c2,2.9,2.9,6,6.7,2.6c1.2-1,3.3,3,4.7,4.8c1,1.3,1.1,3.2,1.6,4.8c-4.8,0.3-9.4-0.3-14.2,2.1
		c-6.6,3.2-8.9,8.9-11.4,14.8c0,0.1-0.1,0.2-0.2,0.4c-0.9,2.2,0.9,3.6,1.3,5.4c0.4,1.9-4.2,0.2-3.3,3.4
		C317.6,205.3,316.3,205.4,315,205.4z"/>
	<path class="st4" d="M315,205.4c1.3,0,2.6,0,4,0c0.6,0,1.2,0.1,1.6,0.8C318.7,205.9,316.7,206.8,315,205.4z"/>
	<path class="st4" d="M348.2,184c0,0.5,0,1,0,1.5C347.5,185,347.5,184.5,348.2,184z"/>
</g>
</svg>
